<mxfile host="app.diagrams.net" modified="2020-08-10T18:27:01.065Z" agent="5.0 (Windows NT 10.0; Win64; x64) AppleWebKit/537.36 (KHTML, like Gecko) Chrome/84.0.4147.105 Safari/537.36" etag="-nq4XHoPUyORVC9MV4i5" version="13.6.2" type="github">
  <diagram id="R2lEEEUBdFMjLlhIrx00" name="Page-1">
    <mxGraphModel dx="1422" dy="1894" grid="1" gridSize="10" guides="1" tooltips="1" connect="1" arrows="1" fold="1" page="1" pageScale="1" pageWidth="850" pageHeight="1100" math="0" shadow="0" extFonts="Permanent Marker^https://fonts.googleapis.com/css?family=Permanent+Marker">
      <root>
        <mxCell id="0" />
        <mxCell id="1" parent="0" />
        <mxCell id="C-vyLk0tnHw3VtMMgP7b-1" value="" style="edgeStyle=entityRelationEdgeStyle;endArrow=ERzeroToMany;startArrow=ERone;endFill=1;startFill=0;strokeColor=#006658;fontColor=#5C5C5C;" parent="1" source="C-vyLk0tnHw3VtMMgP7b-24" target="C-vyLk0tnHw3VtMMgP7b-6" edge="1">
          <mxGeometry width="100" height="100" relative="1" as="geometry">
            <mxPoint x="340" y="720" as="sourcePoint" />
            <mxPoint x="440" y="620" as="targetPoint" />
          </mxGeometry>
        </mxCell>
        <mxCell id="C-vyLk0tnHw3VtMMgP7b-23" value="Customer" style="shape=table;startSize=30;container=1;collapsible=1;childLayout=tableLayout;fixedRows=1;rowLines=0;fontStyle=1;align=center;resizeLast=1;rounded=1;fillColor=#21C0A5;strokeColor=#006658;fontColor=#5C5C5C;" parent="1" vertex="1">
          <mxGeometry x="80" y="120" width="250" height="160" as="geometry">
            <mxRectangle x="80" y="120" width="90" height="30" as="alternateBounds" />
          </mxGeometry>
        </mxCell>
        <mxCell id="C-vyLk0tnHw3VtMMgP7b-24" value="" style="shape=partialRectangle;collapsible=0;dropTarget=0;pointerEvents=0;fillColor=none;points=[[0,0.5],[1,0.5]];portConstraint=eastwest;top=0;left=0;right=0;bottom=1;rounded=1;strokeColor=#006658;fontColor=#5C5C5C;" parent="C-vyLk0tnHw3VtMMgP7b-23" vertex="1">
          <mxGeometry y="30" width="250" height="30" as="geometry" />
        </mxCell>
        <mxCell id="C-vyLk0tnHw3VtMMgP7b-25" value="PK" style="shape=partialRectangle;overflow=hidden;connectable=0;fillColor=none;top=0;left=0;bottom=0;right=0;fontStyle=1;rounded=1;strokeColor=#006658;fontColor=#5C5C5C;" parent="C-vyLk0tnHw3VtMMgP7b-24" vertex="1">
          <mxGeometry width="30" height="30" as="geometry" />
        </mxCell>
        <mxCell id="C-vyLk0tnHw3VtMMgP7b-26" value="id int NOT NULL " style="shape=partialRectangle;overflow=hidden;connectable=0;fillColor=none;top=0;left=0;bottom=0;right=0;align=left;spacingLeft=6;fontStyle=5;rounded=1;strokeColor=#006658;fontColor=#5C5C5C;" parent="C-vyLk0tnHw3VtMMgP7b-24" vertex="1">
          <mxGeometry x="30" width="220" height="30" as="geometry" />
        </mxCell>
        <mxCell id="C-vyLk0tnHw3VtMMgP7b-27" value="" style="shape=partialRectangle;collapsible=0;dropTarget=0;pointerEvents=0;fillColor=none;points=[[0,0.5],[1,0.5]];portConstraint=eastwest;top=0;left=0;right=0;bottom=0;rounded=1;strokeColor=#006658;fontColor=#5C5C5C;" parent="C-vyLk0tnHw3VtMMgP7b-23" vertex="1">
          <mxGeometry y="60" width="250" height="30" as="geometry" />
        </mxCell>
        <mxCell id="C-vyLk0tnHw3VtMMgP7b-28" value="" style="shape=partialRectangle;overflow=hidden;connectable=0;fillColor=none;top=0;left=0;bottom=0;right=0;rounded=1;strokeColor=#006658;fontColor=#5C5C5C;" parent="C-vyLk0tnHw3VtMMgP7b-27" vertex="1">
          <mxGeometry width="30" height="30" as="geometry" />
        </mxCell>
        <mxCell id="C-vyLk0tnHw3VtMMgP7b-29" value="name char(100) NOT NULL" style="shape=partialRectangle;overflow=hidden;connectable=0;fillColor=none;top=0;left=0;bottom=0;right=0;align=left;spacingLeft=6;rounded=1;strokeColor=#006658;fontColor=#5C5C5C;" parent="C-vyLk0tnHw3VtMMgP7b-27" vertex="1">
          <mxGeometry x="30" width="220" height="30" as="geometry" />
        </mxCell>
        <mxCell id="2rhXVrgkwxVS_i8DhZxt-41" style="shape=partialRectangle;collapsible=0;dropTarget=0;pointerEvents=0;fillColor=none;points=[[0,0.5],[1,0.5]];portConstraint=eastwest;top=0;left=0;right=0;bottom=0;rounded=1;strokeColor=#006658;fontColor=#5C5C5C;" vertex="1" parent="C-vyLk0tnHw3VtMMgP7b-23">
          <mxGeometry y="90" width="250" height="30" as="geometry" />
        </mxCell>
        <mxCell id="2rhXVrgkwxVS_i8DhZxt-42" value="FK" style="shape=partialRectangle;overflow=hidden;connectable=0;fillColor=none;top=0;left=0;bottom=0;right=0;rounded=1;strokeColor=#006658;fontColor=#5C5C5C;" vertex="1" parent="2rhXVrgkwxVS_i8DhZxt-41">
          <mxGeometry width="30" height="30" as="geometry" />
        </mxCell>
        <mxCell id="2rhXVrgkwxVS_i8DhZxt-43" style="shape=partialRectangle;overflow=hidden;connectable=0;fillColor=none;top=0;left=0;bottom=0;right=0;align=left;spacingLeft=6;rounded=1;strokeColor=#006658;fontColor=#5C5C5C;" vertex="1" parent="2rhXVrgkwxVS_i8DhZxt-41">
          <mxGeometry x="30" width="220" height="30" as="geometry" />
        </mxCell>
        <mxCell id="2rhXVrgkwxVS_i8DhZxt-38" style="shape=partialRectangle;collapsible=0;dropTarget=0;pointerEvents=0;fillColor=none;points=[[0,0.5],[1,0.5]];portConstraint=eastwest;top=0;left=0;right=0;bottom=0;rounded=1;strokeColor=#006658;fontColor=#5C5C5C;" vertex="1" parent="C-vyLk0tnHw3VtMMgP7b-23">
          <mxGeometry y="120" width="250" height="30" as="geometry" />
        </mxCell>
        <mxCell id="2rhXVrgkwxVS_i8DhZxt-39" style="shape=partialRectangle;overflow=hidden;connectable=0;fillColor=none;top=0;left=0;bottom=0;right=0;rounded=1;strokeColor=#006658;fontColor=#5C5C5C;" vertex="1" parent="2rhXVrgkwxVS_i8DhZxt-38">
          <mxGeometry width="30" height="30" as="geometry" />
        </mxCell>
        <mxCell id="2rhXVrgkwxVS_i8DhZxt-40" style="shape=partialRectangle;overflow=hidden;connectable=0;fillColor=none;top=0;left=0;bottom=0;right=0;align=left;spacingLeft=6;rounded=1;strokeColor=#006658;fontColor=#5C5C5C;" vertex="1" parent="2rhXVrgkwxVS_i8DhZxt-38">
          <mxGeometry x="30" width="220" height="30" as="geometry" />
        </mxCell>
        <mxCell id="2rhXVrgkwxVS_i8DhZxt-25" value="" style="edgeStyle=entityRelationEdgeStyle;endArrow=ERzeroToMany;startArrow=ERone;endFill=1;startFill=0;exitX=1;exitY=0.5;exitDx=0;exitDy=0;startSize=6;entryX=0;entryY=0.5;entryDx=0;entryDy=0;strokeColor=#006658;fontColor=#5C5C5C;" edge="1" parent="1" source="2rhXVrgkwxVS_i8DhZxt-2" target="2rhXVrgkwxVS_i8DhZxt-41">
          <mxGeometry width="100" height="100" relative="1" as="geometry">
            <mxPoint x="400" y="-5" as="sourcePoint" />
            <mxPoint x="240" y="100" as="targetPoint" />
          </mxGeometry>
        </mxCell>
        <mxCell id="2rhXVrgkwxVS_i8DhZxt-1" value="Division" style="shape=table;startSize=30;container=1;collapsible=1;childLayout=tableLayout;fixedRows=1;rowLines=0;fontStyle=1;align=center;resizeLast=1;rounded=1;fillColor=#21C0A5;strokeColor=#006658;fontColor=#5C5C5C;" vertex="1" parent="1">
          <mxGeometry x="50" y="-60" width="250" height="100" as="geometry" />
        </mxCell>
        <mxCell id="2rhXVrgkwxVS_i8DhZxt-2" value="" style="shape=partialRectangle;collapsible=0;dropTarget=0;pointerEvents=0;fillColor=none;points=[[0,0.5],[1,0.5]];portConstraint=eastwest;top=0;left=0;right=0;bottom=1;rounded=1;strokeColor=#006658;fontColor=#5C5C5C;" vertex="1" parent="2rhXVrgkwxVS_i8DhZxt-1">
          <mxGeometry y="30" width="250" height="30" as="geometry" />
        </mxCell>
        <mxCell id="2rhXVrgkwxVS_i8DhZxt-3" value="PK" style="shape=partialRectangle;overflow=hidden;connectable=0;fillColor=none;top=0;left=0;bottom=0;right=0;fontStyle=1;rounded=1;strokeColor=#006658;fontColor=#5C5C5C;" vertex="1" parent="2rhXVrgkwxVS_i8DhZxt-2">
          <mxGeometry width="30" height="30" as="geometry" />
        </mxCell>
        <mxCell id="2rhXVrgkwxVS_i8DhZxt-4" value="idÂ int NOT NULL " style="shape=partialRectangle;overflow=hidden;connectable=0;fillColor=none;top=0;left=0;bottom=0;right=0;align=left;spacingLeft=6;fontStyle=5;rounded=1;strokeColor=#006658;fontColor=#5C5C5C;" vertex="1" parent="2rhXVrgkwxVS_i8DhZxt-2">
          <mxGeometry x="30" width="220" height="30" as="geometry" />
        </mxCell>
        <mxCell id="2rhXVrgkwxVS_i8DhZxt-8" value="" style="shape=partialRectangle;collapsible=0;dropTarget=0;pointerEvents=0;fillColor=none;points=[[0,0.5],[1,0.5]];portConstraint=eastwest;top=0;left=0;right=0;bottom=0;rounded=1;strokeColor=#006658;fontColor=#5C5C5C;" vertex="1" parent="2rhXVrgkwxVS_i8DhZxt-1">
          <mxGeometry y="60" width="250" height="30" as="geometry" />
        </mxCell>
        <mxCell id="2rhXVrgkwxVS_i8DhZxt-9" value="" style="shape=partialRectangle;overflow=hidden;connectable=0;fillColor=none;top=0;left=0;bottom=0;right=0;rounded=1;strokeColor=#006658;fontColor=#5C5C5C;" vertex="1" parent="2rhXVrgkwxVS_i8DhZxt-8">
          <mxGeometry width="30" height="30" as="geometry" />
        </mxCell>
        <mxCell id="2rhXVrgkwxVS_i8DhZxt-10" value="name string NOT NULL" style="shape=partialRectangle;overflow=hidden;connectable=0;fillColor=none;top=0;left=0;bottom=0;right=0;align=left;spacingLeft=6;rounded=1;strokeColor=#006658;fontColor=#5C5C5C;" vertex="1" parent="2rhXVrgkwxVS_i8DhZxt-8">
          <mxGeometry x="30" width="220" height="30" as="geometry" />
        </mxCell>
        <mxCell id="2rhXVrgkwxVS_i8DhZxt-44" value="division_id char(50) NOT NULL" style="shape=partialRectangle;overflow=hidden;connectable=0;fillColor=none;top=0;left=0;bottom=0;right=0;align=left;spacingLeft=6;rounded=1;strokeColor=#006658;fontColor=#5C5C5C;" vertex="1" parent="1">
          <mxGeometry x="110" y="210" width="220" height="30" as="geometry" />
        </mxCell>
        <mxCell id="C-vyLk0tnHw3VtMMgP7b-2" value="Product" style="shape=table;startSize=30;container=1;collapsible=1;childLayout=tableLayout;fixedRows=1;rowLines=0;fontStyle=1;align=center;resizeLast=1;rounded=1;fillColor=#21C0A5;strokeColor=#006658;fontColor=#5C5C5C;" parent="1" vertex="1">
          <mxGeometry x="425" y="120" width="250" height="130" as="geometry" />
        </mxCell>
        <mxCell id="C-vyLk0tnHw3VtMMgP7b-3" value="" style="shape=partialRectangle;collapsible=0;dropTarget=0;pointerEvents=0;fillColor=none;points=[[0,0.5],[1,0.5]];portConstraint=eastwest;top=0;left=0;right=0;bottom=1;rounded=1;strokeColor=#006658;fontColor=#5C5C5C;" parent="C-vyLk0tnHw3VtMMgP7b-2" vertex="1">
          <mxGeometry y="30" width="250" height="30" as="geometry" />
        </mxCell>
        <mxCell id="C-vyLk0tnHw3VtMMgP7b-4" value="PK" style="shape=partialRectangle;overflow=hidden;connectable=0;fillColor=none;top=0;left=0;bottom=0;right=0;fontStyle=1;rounded=1;strokeColor=#006658;fontColor=#5C5C5C;" parent="C-vyLk0tnHw3VtMMgP7b-3" vertex="1">
          <mxGeometry width="30" height="30" as="geometry" />
        </mxCell>
        <mxCell id="C-vyLk0tnHw3VtMMgP7b-5" value="idÂ int NOT NULL " style="shape=partialRectangle;overflow=hidden;connectable=0;fillColor=none;top=0;left=0;bottom=0;right=0;align=left;spacingLeft=6;fontStyle=5;rounded=1;strokeColor=#006658;fontColor=#5C5C5C;" parent="C-vyLk0tnHw3VtMMgP7b-3" vertex="1">
          <mxGeometry x="30" width="220" height="30" as="geometry" />
        </mxCell>
        <mxCell id="C-vyLk0tnHw3VtMMgP7b-6" value="" style="shape=partialRectangle;collapsible=0;dropTarget=0;pointerEvents=0;fillColor=none;points=[[0,0.5],[1,0.5]];portConstraint=eastwest;top=0;left=0;right=0;bottom=0;rounded=1;strokeColor=#006658;fontColor=#5C5C5C;" parent="C-vyLk0tnHw3VtMMgP7b-2" vertex="1">
          <mxGeometry y="60" width="250" height="30" as="geometry" />
        </mxCell>
        <mxCell id="C-vyLk0tnHw3VtMMgP7b-7" value="FK1" style="shape=partialRectangle;overflow=hidden;connectable=0;fillColor=none;top=0;left=0;bottom=0;right=0;rounded=1;strokeColor=#006658;fontColor=#5C5C5C;" parent="C-vyLk0tnHw3VtMMgP7b-6" vertex="1">
          <mxGeometry width="30" height="30" as="geometry" />
        </mxCell>
        <mxCell id="C-vyLk0tnHw3VtMMgP7b-8" value="customer_id int NOT NULL" style="shape=partialRectangle;overflow=hidden;connectable=0;fillColor=none;top=0;left=0;bottom=0;right=0;align=left;spacingLeft=6;rounded=1;strokeColor=#006658;fontColor=#5C5C5C;" parent="C-vyLk0tnHw3VtMMgP7b-6" vertex="1">
          <mxGeometry x="30" width="220" height="30" as="geometry" />
        </mxCell>
        <mxCell id="C-vyLk0tnHw3VtMMgP7b-9" value="" style="shape=partialRectangle;collapsible=0;dropTarget=0;pointerEvents=0;fillColor=none;points=[[0,0.5],[1,0.5]];portConstraint=eastwest;top=0;left=0;right=0;bottom=0;rounded=1;strokeColor=#006658;fontColor=#5C5C5C;" parent="C-vyLk0tnHw3VtMMgP7b-2" vertex="1">
          <mxGeometry y="90" width="250" height="30" as="geometry" />
        </mxCell>
        <mxCell id="C-vyLk0tnHw3VtMMgP7b-10" value="" style="shape=partialRectangle;overflow=hidden;connectable=0;fillColor=none;top=0;left=0;bottom=0;right=0;rounded=1;strokeColor=#006658;fontColor=#5C5C5C;" parent="C-vyLk0tnHw3VtMMgP7b-9" vertex="1">
          <mxGeometry width="30" height="30" as="geometry" />
        </mxCell>
        <mxCell id="C-vyLk0tnHw3VtMMgP7b-11" value="name char(100)Â NOT NULL" style="shape=partialRectangle;overflow=hidden;connectable=0;fillColor=none;top=0;left=0;bottom=0;right=0;align=left;spacingLeft=6;rounded=1;strokeColor=#006658;fontColor=#5C5C5C;" parent="C-vyLk0tnHw3VtMMgP7b-9" vertex="1">
          <mxGeometry x="30" width="220" height="30" as="geometry" />
        </mxCell>
        <mxCell id="2rhXVrgkwxVS_i8DhZxt-52" value="" style="edgeStyle=entityRelationEdgeStyle;endArrow=ERzeroToMany;startArrow=ERone;endFill=1;startFill=0;exitX=1;exitY=0.5;exitDx=0;exitDy=0;entryX=0;entryY=0.5;entryDx=0;entryDy=0;strokeColor=#006658;fontColor=#5C5C5C;" edge="1" parent="1" source="C-vyLk0tnHw3VtMMgP7b-3" target="2rhXVrgkwxVS_i8DhZxt-53">
          <mxGeometry width="100" height="100" relative="1" as="geometry">
            <mxPoint x="690" y="180" as="sourcePoint" />
            <mxPoint x="730" y="200" as="targetPoint" />
          </mxGeometry>
        </mxCell>
        <mxCell id="2rhXVrgkwxVS_i8DhZxt-45" value="Material" style="shape=table;startSize=30;container=1;collapsible=1;childLayout=tableLayout;fixedRows=1;rowLines=0;fontStyle=1;align=center;resizeLast=1;rounded=1;fillColor=#21C0A5;strokeColor=#006658;fontColor=#5C5C5C;" vertex="1" parent="1">
          <mxGeometry x="740" y="120" width="250" height="160" as="geometry" />
        </mxCell>
        <mxCell id="2rhXVrgkwxVS_i8DhZxt-46" value="" style="shape=partialRectangle;collapsible=0;dropTarget=0;pointerEvents=0;fillColor=none;points=[[0,0.5],[1,0.5]];portConstraint=eastwest;top=0;left=0;right=0;bottom=1;rounded=1;strokeColor=#006658;fontColor=#5C5C5C;" vertex="1" parent="2rhXVrgkwxVS_i8DhZxt-45">
          <mxGeometry y="30" width="250" height="30" as="geometry" />
        </mxCell>
        <mxCell id="2rhXVrgkwxVS_i8DhZxt-47" value="PK" style="shape=partialRectangle;overflow=hidden;connectable=0;fillColor=none;top=0;left=0;bottom=0;right=0;fontStyle=1;rounded=1;strokeColor=#006658;fontColor=#5C5C5C;" vertex="1" parent="2rhXVrgkwxVS_i8DhZxt-46">
          <mxGeometry width="30" height="30" as="geometry" />
        </mxCell>
        <mxCell id="2rhXVrgkwxVS_i8DhZxt-48" value="idÂ int NOT NULL " style="shape=partialRectangle;overflow=hidden;connectable=0;fillColor=none;top=0;left=0;bottom=0;right=0;align=left;spacingLeft=6;fontStyle=5;rounded=1;strokeColor=#006658;fontColor=#5C5C5C;" vertex="1" parent="2rhXVrgkwxVS_i8DhZxt-46">
          <mxGeometry x="30" width="220" height="30" as="geometry" />
        </mxCell>
        <mxCell id="2rhXVrgkwxVS_i8DhZxt-49" value="" style="shape=partialRectangle;collapsible=0;dropTarget=0;pointerEvents=0;fillColor=none;points=[[0,0.5],[1,0.5]];portConstraint=eastwest;top=0;left=0;right=0;bottom=0;rounded=1;strokeColor=#006658;fontColor=#5C5C5C;" vertex="1" parent="2rhXVrgkwxVS_i8DhZxt-45">
          <mxGeometry y="60" width="250" height="30" as="geometry" />
        </mxCell>
        <mxCell id="2rhXVrgkwxVS_i8DhZxt-50" value="" style="shape=partialRectangle;overflow=hidden;connectable=0;fillColor=none;top=0;left=0;bottom=0;right=0;rounded=1;strokeColor=#006658;fontColor=#5C5C5C;" vertex="1" parent="2rhXVrgkwxVS_i8DhZxt-49">
          <mxGeometry width="30" height="30" as="geometry" />
        </mxCell>
        <mxCell id="2rhXVrgkwxVS_i8DhZxt-51" value="name string NOT NULL" style="shape=partialRectangle;overflow=hidden;connectable=0;fillColor=none;top=0;left=0;bottom=0;right=0;align=left;spacingLeft=6;rounded=1;strokeColor=#006658;fontColor=#5C5C5C;" vertex="1" parent="2rhXVrgkwxVS_i8DhZxt-49">
          <mxGeometry x="30" width="220" height="30" as="geometry" />
        </mxCell>
        <mxCell id="2rhXVrgkwxVS_i8DhZxt-53" style="shape=partialRectangle;collapsible=0;dropTarget=0;pointerEvents=0;fillColor=none;points=[[0,0.5],[1,0.5]];portConstraint=eastwest;top=0;left=0;right=0;bottom=0;rounded=1;strokeColor=#006658;fontColor=#5C5C5C;" vertex="1" parent="2rhXVrgkwxVS_i8DhZxt-45">
          <mxGeometry y="90" width="250" height="30" as="geometry" />
        </mxCell>
        <mxCell id="2rhXVrgkwxVS_i8DhZxt-54" value="FK" style="shape=partialRectangle;overflow=hidden;connectable=0;fillColor=none;top=0;left=0;bottom=0;right=0;rounded=1;strokeColor=#006658;fontColor=#5C5C5C;" vertex="1" parent="2rhXVrgkwxVS_i8DhZxt-53">
          <mxGeometry width="30" height="30" as="geometry" />
        </mxCell>
        <mxCell id="2rhXVrgkwxVS_i8DhZxt-55" value="product_id char(50) NOT NULL" style="shape=partialRectangle;overflow=hidden;connectable=0;fillColor=none;top=0;left=0;bottom=0;right=0;align=left;spacingLeft=6;rounded=1;strokeColor=#006658;fontColor=#5C5C5C;" vertex="1" parent="2rhXVrgkwxVS_i8DhZxt-53">
          <mxGeometry x="30" width="220" height="30" as="geometry" />
        </mxCell>
        <mxCell id="2rhXVrgkwxVS_i8DhZxt-56" style="shape=partialRectangle;collapsible=0;dropTarget=0;pointerEvents=0;fillColor=none;points=[[0,0.5],[1,0.5]];portConstraint=eastwest;top=0;left=0;right=0;bottom=0;rounded=1;strokeColor=#006658;fontColor=#5C5C5C;" vertex="1" parent="2rhXVrgkwxVS_i8DhZxt-45">
          <mxGeometry y="120" width="250" height="30" as="geometry" />
        </mxCell>
        <mxCell id="2rhXVrgkwxVS_i8DhZxt-57" style="shape=partialRectangle;overflow=hidden;connectable=0;fillColor=none;top=0;left=0;bottom=0;right=0;rounded=1;strokeColor=#006658;fontColor=#5C5C5C;" vertex="1" parent="2rhXVrgkwxVS_i8DhZxt-56">
          <mxGeometry width="30" height="30" as="geometry" />
        </mxCell>
        <mxCell id="2rhXVrgkwxVS_i8DhZxt-58" value="mask char(MAX) NOT NULL" style="shape=partialRectangle;overflow=hidden;connectable=0;fillColor=none;top=0;left=0;bottom=0;right=0;align=left;spacingLeft=6;rounded=1;strokeColor=#006658;fontColor=#5C5C5C;" vertex="1" parent="2rhXVrgkwxVS_i8DhZxt-56">
          <mxGeometry x="30" width="220" height="30" as="geometry" />
        </mxCell>
        <mxCell id="2rhXVrgkwxVS_i8DhZxt-66" value="" style="edgeStyle=entityRelationEdgeStyle;endArrow=ERzeroToMany;startArrow=ERone;endFill=1;startFill=0;exitX=1;exitY=0.5;exitDx=0;exitDy=0;entryX=0;entryY=0.5;entryDx=0;entryDy=0;strokeColor=#006658;fontColor=#5C5C5C;" edge="1" parent="1" source="C-vyLk0tnHw3VtMMgP7b-3" target="2rhXVrgkwxVS_i8DhZxt-63">
          <mxGeometry width="100" height="100" relative="1" as="geometry">
            <mxPoint x="680" y="170" as="sourcePoint" />
            <mxPoint x="410" y="370" as="targetPoint" />
          </mxGeometry>
        </mxCell>
        <mxCell id="2rhXVrgkwxVS_i8DhZxt-73" value="" style="edgeStyle=entityRelationEdgeStyle;endArrow=ERone;startArrow=ERzeroToMany;endFill=0;startFill=1;exitX=1;exitY=0.5;exitDx=0;exitDy=0;entryX=0;entryY=0.5;entryDx=0;entryDy=0;strokeColor=#006658;fontColor=#5C5C5C;" edge="1" parent="1" source="2rhXVrgkwxVS_i8DhZxt-67" target="2rhXVrgkwxVS_i8DhZxt-18">
          <mxGeometry width="100" height="100" relative="1" as="geometry">
            <mxPoint x="705" y="380" as="sourcePoint" />
            <mxPoint x="470" y="590" as="targetPoint" />
          </mxGeometry>
        </mxCell>
        <mxCell id="2rhXVrgkwxVS_i8DhZxt-80" value="Rule" style="shape=table;startSize=30;container=1;collapsible=1;childLayout=tableLayout;fixedRows=1;rowLines=0;fontStyle=1;align=center;resizeLast=1;rounded=1;fillColor=#21C0A5;strokeColor=#006658;fontColor=#5C5C5C;" vertex="1" parent="1">
          <mxGeometry x="80" y="420" width="250" height="100" as="geometry" />
        </mxCell>
        <mxCell id="2rhXVrgkwxVS_i8DhZxt-81" value="" style="shape=partialRectangle;collapsible=0;dropTarget=0;pointerEvents=0;fillColor=none;points=[[0,0.5],[1,0.5]];portConstraint=eastwest;top=0;left=0;right=0;bottom=1;rounded=1;strokeColor=#006658;fontColor=#5C5C5C;" vertex="1" parent="2rhXVrgkwxVS_i8DhZxt-80">
          <mxGeometry y="30" width="250" height="30" as="geometry" />
        </mxCell>
        <mxCell id="2rhXVrgkwxVS_i8DhZxt-82" value="PK" style="shape=partialRectangle;overflow=hidden;connectable=0;fillColor=none;top=0;left=0;bottom=0;right=0;fontStyle=1;rounded=1;strokeColor=#006658;fontColor=#5C5C5C;" vertex="1" parent="2rhXVrgkwxVS_i8DhZxt-81">
          <mxGeometry width="30" height="30" as="geometry" />
        </mxCell>
        <mxCell id="2rhXVrgkwxVS_i8DhZxt-83" value="idÂ int NOT NULL " style="shape=partialRectangle;overflow=hidden;connectable=0;fillColor=none;top=0;left=0;bottom=0;right=0;align=left;spacingLeft=6;fontStyle=5;rounded=1;strokeColor=#006658;fontColor=#5C5C5C;" vertex="1" parent="2rhXVrgkwxVS_i8DhZxt-81">
          <mxGeometry x="30" width="220" height="30" as="geometry" />
        </mxCell>
        <mxCell id="2rhXVrgkwxVS_i8DhZxt-84" value="" style="shape=partialRectangle;collapsible=0;dropTarget=0;pointerEvents=0;fillColor=none;points=[[0,0.5],[1,0.5]];portConstraint=eastwest;top=0;left=0;right=0;bottom=0;rounded=1;strokeColor=#006658;fontColor=#5C5C5C;" vertex="1" parent="2rhXVrgkwxVS_i8DhZxt-80">
          <mxGeometry y="60" width="250" height="30" as="geometry" />
        </mxCell>
        <mxCell id="2rhXVrgkwxVS_i8DhZxt-85" value="" style="shape=partialRectangle;overflow=hidden;connectable=0;fillColor=none;top=0;left=0;bottom=0;right=0;rounded=1;strokeColor=#006658;fontColor=#5C5C5C;" vertex="1" parent="2rhXVrgkwxVS_i8DhZxt-84">
          <mxGeometry width="30" height="30" as="geometry" />
        </mxCell>
        <mxCell id="2rhXVrgkwxVS_i8DhZxt-86" value="name string NOT NULL" style="shape=partialRectangle;overflow=hidden;connectable=0;fillColor=none;top=0;left=0;bottom=0;right=0;align=left;spacingLeft=6;rounded=1;strokeColor=#006658;fontColor=#5C5C5C;" vertex="1" parent="2rhXVrgkwxVS_i8DhZxt-84">
          <mxGeometry x="30" width="220" height="30" as="geometry" />
        </mxCell>
        <mxCell id="2rhXVrgkwxVS_i8DhZxt-87" value="" style="edgeStyle=entityRelationEdgeStyle;endArrow=ERone;startArrow=ERzeroToMany;endFill=0;startFill=1;exitX=1;exitY=0.5;exitDx=0;exitDy=0;entryX=0;entryY=0.5;entryDx=0;entryDy=0;strokeColor=#006658;fontColor=#5C5C5C;" edge="1" parent="1" source="2rhXVrgkwxVS_i8DhZxt-81" target="2rhXVrgkwxVS_i8DhZxt-77">
          <mxGeometry width="100" height="100" relative="1" as="geometry">
            <mxPoint x="345" y="550" as="sourcePoint" />
            <mxPoint x="440" y="580" as="targetPoint" />
          </mxGeometry>
        </mxCell>
        <mxCell id="2rhXVrgkwxVS_i8DhZxt-17" value="Station" style="shape=table;startSize=30;container=1;collapsible=1;childLayout=tableLayout;fixedRows=1;rowLines=0;fontStyle=1;align=center;resizeLast=1;rounded=1;fillColor=#21C0A5;strokeColor=#006658;fontColor=#5C5C5C;" vertex="1" parent="1">
          <mxGeometry x="740" y="300" width="250" height="100" as="geometry" />
        </mxCell>
        <mxCell id="2rhXVrgkwxVS_i8DhZxt-18" value="" style="shape=partialRectangle;collapsible=0;dropTarget=0;pointerEvents=0;fillColor=none;points=[[0,0.5],[1,0.5]];portConstraint=eastwest;top=0;left=0;right=0;bottom=1;rounded=1;strokeColor=#006658;fontColor=#5C5C5C;" vertex="1" parent="2rhXVrgkwxVS_i8DhZxt-17">
          <mxGeometry y="30" width="250" height="30" as="geometry" />
        </mxCell>
        <mxCell id="2rhXVrgkwxVS_i8DhZxt-19" value="PK" style="shape=partialRectangle;overflow=hidden;connectable=0;fillColor=none;top=0;left=0;bottom=0;right=0;fontStyle=1;rounded=1;strokeColor=#006658;fontColor=#5C5C5C;" vertex="1" parent="2rhXVrgkwxVS_i8DhZxt-18">
          <mxGeometry width="30" height="30" as="geometry" />
        </mxCell>
        <mxCell id="2rhXVrgkwxVS_i8DhZxt-20" value="idÂ int NOT NULL " style="shape=partialRectangle;overflow=hidden;connectable=0;fillColor=none;top=0;left=0;bottom=0;right=0;align=left;spacingLeft=6;fontStyle=5;rounded=1;strokeColor=#006658;fontColor=#5C5C5C;" vertex="1" parent="2rhXVrgkwxVS_i8DhZxt-18">
          <mxGeometry x="30" width="220" height="30" as="geometry" />
        </mxCell>
        <mxCell id="2rhXVrgkwxVS_i8DhZxt-21" value="" style="shape=partialRectangle;collapsible=0;dropTarget=0;pointerEvents=0;fillColor=none;points=[[0,0.5],[1,0.5]];portConstraint=eastwest;top=0;left=0;right=0;bottom=0;rounded=1;strokeColor=#006658;fontColor=#5C5C5C;" vertex="1" parent="2rhXVrgkwxVS_i8DhZxt-17">
          <mxGeometry y="60" width="250" height="30" as="geometry" />
        </mxCell>
        <mxCell id="2rhXVrgkwxVS_i8DhZxt-22" value="" style="shape=partialRectangle;overflow=hidden;connectable=0;fillColor=none;top=0;left=0;bottom=0;right=0;rounded=1;strokeColor=#006658;fontColor=#5C5C5C;" vertex="1" parent="2rhXVrgkwxVS_i8DhZxt-21">
          <mxGeometry width="30" height="30" as="geometry" />
        </mxCell>
        <mxCell id="2rhXVrgkwxVS_i8DhZxt-23" value="name string NOT NULL" style="shape=partialRectangle;overflow=hidden;connectable=0;fillColor=none;top=0;left=0;bottom=0;right=0;align=left;spacingLeft=6;rounded=1;strokeColor=#006658;fontColor=#5C5C5C;" vertex="1" parent="2rhXVrgkwxVS_i8DhZxt-21">
          <mxGeometry x="30" width="220" height="30" as="geometry" />
        </mxCell>
        <mxCell id="2rhXVrgkwxVS_i8DhZxt-59" value="ProductStations" style="shape=table;startSize=30;container=1;collapsible=1;childLayout=tableLayout;fixedRows=1;rowLines=0;fontStyle=1;align=center;resizeLast=1;rounded=1;fillColor=#21C0A5;strokeColor=#006658;fontColor=#5C5C5C;" vertex="1" parent="1">
          <mxGeometry x="425" y="300" width="250" height="220" as="geometry" />
        </mxCell>
        <mxCell id="2rhXVrgkwxVS_i8DhZxt-60" value="" style="shape=partialRectangle;collapsible=0;dropTarget=0;pointerEvents=0;fillColor=none;points=[[0,0.5],[1,0.5]];portConstraint=eastwest;top=0;left=0;right=0;bottom=1;rounded=1;strokeColor=#006658;fontColor=#5C5C5C;" vertex="1" parent="2rhXVrgkwxVS_i8DhZxt-59">
          <mxGeometry y="30" width="250" height="30" as="geometry" />
        </mxCell>
        <mxCell id="2rhXVrgkwxVS_i8DhZxt-61" value="PK" style="shape=partialRectangle;overflow=hidden;connectable=0;fillColor=none;top=0;left=0;bottom=0;right=0;fontStyle=1;rounded=1;strokeColor=#006658;fontColor=#5C5C5C;" vertex="1" parent="2rhXVrgkwxVS_i8DhZxt-60">
          <mxGeometry width="30" height="30" as="geometry" />
        </mxCell>
        <mxCell id="2rhXVrgkwxVS_i8DhZxt-62" value="idÂ int NOT NULL " style="shape=partialRectangle;overflow=hidden;connectable=0;fillColor=none;top=0;left=0;bottom=0;right=0;align=left;spacingLeft=6;fontStyle=5;rounded=1;strokeColor=#006658;fontColor=#5C5C5C;" vertex="1" parent="2rhXVrgkwxVS_i8DhZxt-60">
          <mxGeometry x="30" width="220" height="30" as="geometry" />
        </mxCell>
        <mxCell id="2rhXVrgkwxVS_i8DhZxt-63" value="" style="shape=partialRectangle;collapsible=0;dropTarget=0;pointerEvents=0;fillColor=none;points=[[0,0.5],[1,0.5]];portConstraint=eastwest;top=0;left=0;right=0;bottom=0;rounded=1;strokeColor=#006658;fontColor=#5C5C5C;" vertex="1" parent="2rhXVrgkwxVS_i8DhZxt-59">
          <mxGeometry y="60" width="250" height="30" as="geometry" />
        </mxCell>
        <mxCell id="2rhXVrgkwxVS_i8DhZxt-64" value="FK" style="shape=partialRectangle;overflow=hidden;connectable=0;fillColor=none;top=0;left=0;bottom=0;right=0;rounded=1;strokeColor=#006658;fontColor=#5C5C5C;" vertex="1" parent="2rhXVrgkwxVS_i8DhZxt-63">
          <mxGeometry width="30" height="30" as="geometry" />
        </mxCell>
        <mxCell id="2rhXVrgkwxVS_i8DhZxt-65" value="product_id char(50) NOT NULL" style="shape=partialRectangle;overflow=hidden;connectable=0;fillColor=none;top=0;left=0;bottom=0;right=0;align=left;spacingLeft=6;rounded=1;strokeColor=#006658;fontColor=#5C5C5C;" vertex="1" parent="2rhXVrgkwxVS_i8DhZxt-63">
          <mxGeometry x="30" width="220" height="30" as="geometry" />
        </mxCell>
        <mxCell id="2rhXVrgkwxVS_i8DhZxt-67" style="shape=partialRectangle;collapsible=0;dropTarget=0;pointerEvents=0;fillColor=none;points=[[0,0.5],[1,0.5]];portConstraint=eastwest;top=0;left=0;right=0;bottom=0;rounded=1;strokeColor=#006658;fontColor=#5C5C5C;" vertex="1" parent="2rhXVrgkwxVS_i8DhZxt-59">
          <mxGeometry y="90" width="250" height="30" as="geometry" />
        </mxCell>
        <mxCell id="2rhXVrgkwxVS_i8DhZxt-68" value="FK" style="shape=partialRectangle;overflow=hidden;connectable=0;fillColor=none;top=0;left=0;bottom=0;right=0;rounded=1;strokeColor=#006658;fontColor=#5C5C5C;" vertex="1" parent="2rhXVrgkwxVS_i8DhZxt-67">
          <mxGeometry width="30" height="30" as="geometry" />
        </mxCell>
        <mxCell id="2rhXVrgkwxVS_i8DhZxt-69" value="station_id char(50) NOT NULL" style="shape=partialRectangle;overflow=hidden;connectable=0;fillColor=none;top=0;left=0;bottom=0;right=0;align=left;spacingLeft=6;rounded=1;strokeColor=#006658;fontColor=#5C5C5C;" vertex="1" parent="2rhXVrgkwxVS_i8DhZxt-67">
          <mxGeometry x="30" width="220" height="30" as="geometry" />
        </mxCell>
        <mxCell id="2rhXVrgkwxVS_i8DhZxt-70" style="shape=partialRectangle;collapsible=0;dropTarget=0;pointerEvents=0;fillColor=none;points=[[0,0.5],[1,0.5]];portConstraint=eastwest;top=0;left=0;right=0;bottom=0;rounded=1;strokeColor=#006658;fontColor=#5C5C5C;" vertex="1" parent="2rhXVrgkwxVS_i8DhZxt-59">
          <mxGeometry y="120" width="250" height="30" as="geometry" />
        </mxCell>
        <mxCell id="2rhXVrgkwxVS_i8DhZxt-71" style="shape=partialRectangle;overflow=hidden;connectable=0;fillColor=none;top=0;left=0;bottom=0;right=0;rounded=1;strokeColor=#006658;fontColor=#5C5C5C;" vertex="1" parent="2rhXVrgkwxVS_i8DhZxt-70">
          <mxGeometry width="30" height="30" as="geometry" />
        </mxCell>
        <mxCell id="2rhXVrgkwxVS_i8DhZxt-72" value="index int NOT NULL" style="shape=partialRectangle;overflow=hidden;connectable=0;fillColor=none;top=0;left=0;bottom=0;right=0;align=left;spacingLeft=6;rounded=1;strokeColor=#006658;fontColor=#5C5C5C;" vertex="1" parent="2rhXVrgkwxVS_i8DhZxt-70">
          <mxGeometry x="30" width="220" height="30" as="geometry" />
        </mxCell>
        <mxCell id="2rhXVrgkwxVS_i8DhZxt-77" style="shape=partialRectangle;collapsible=0;dropTarget=0;pointerEvents=0;fillColor=none;points=[[0,0.5],[1,0.5]];portConstraint=eastwest;top=0;left=0;right=0;bottom=0;rounded=1;strokeColor=#006658;fontColor=#5C5C5C;" vertex="1" parent="2rhXVrgkwxVS_i8DhZxt-59">
          <mxGeometry y="150" width="250" height="30" as="geometry" />
        </mxCell>
        <mxCell id="2rhXVrgkwxVS_i8DhZxt-78" value="FK" style="shape=partialRectangle;overflow=hidden;connectable=0;fillColor=none;top=0;left=0;bottom=0;right=0;rounded=1;strokeColor=#006658;fontColor=#5C5C5C;" vertex="1" parent="2rhXVrgkwxVS_i8DhZxt-77">
          <mxGeometry width="30" height="30" as="geometry" />
        </mxCell>
        <mxCell id="2rhXVrgkwxVS_i8DhZxt-79" value="rule_id int NOT NULL" style="shape=partialRectangle;overflow=hidden;connectable=0;fillColor=none;top=0;left=0;bottom=0;right=0;align=left;spacingLeft=6;rounded=1;strokeColor=#006658;fontColor=#5C5C5C;" vertex="1" parent="2rhXVrgkwxVS_i8DhZxt-77">
          <mxGeometry x="30" width="220" height="30" as="geometry" />
        </mxCell>
        <mxCell id="2rhXVrgkwxVS_i8DhZxt-74" style="shape=partialRectangle;collapsible=0;dropTarget=0;pointerEvents=0;fillColor=none;points=[[0,0.5],[1,0.5]];portConstraint=eastwest;top=0;left=0;right=0;bottom=0;rounded=1;strokeColor=#006658;fontColor=#5C5C5C;" vertex="1" parent="2rhXVrgkwxVS_i8DhZxt-59">
          <mxGeometry y="180" width="250" height="30" as="geometry" />
        </mxCell>
        <mxCell id="2rhXVrgkwxVS_i8DhZxt-75" style="shape=partialRectangle;overflow=hidden;connectable=0;fillColor=none;top=0;left=0;bottom=0;right=0;rounded=1;strokeColor=#006658;fontColor=#5C5C5C;" vertex="1" parent="2rhXVrgkwxVS_i8DhZxt-74">
          <mxGeometry width="30" height="30" as="geometry" />
        </mxCell>
        <mxCell id="2rhXVrgkwxVS_i8DhZxt-76" style="shape=partialRectangle;overflow=hidden;connectable=0;fillColor=none;top=0;left=0;bottom=0;right=0;align=left;spacingLeft=6;rounded=1;strokeColor=#006658;fontColor=#5C5C5C;" vertex="1" parent="2rhXVrgkwxVS_i8DhZxt-74">
          <mxGeometry x="30" width="220" height="30" as="geometry" />
        </mxCell>
      </root>
    </mxGraphModel>
  </diagram>
</mxfile>
